# xmcd CD database file generated by Grip 3.4.3
# 
# Track frame offsets:
#       183
#       66333
#       106383
#       124308
#       163008
#       203658
#       246858
# 
# Disc length: 3592 seconds
# 
# Revision: 2
# Processed by: cddbd v1.5.2PL0 Copyright (c) Steve Scherf et al.
# Submitted via: Grip 3.4.3
# 
DISCID=620e0607
DTITLE=Alfred Brendel - Schubert: The Last Three Piano Sonatas - Three Pi
DTITLE=ano Pieces CD2
DYEAR=1993
DGENRE=Classical
TTITLE0=Sonata in B flat, D960 (op posth) - I. Molto moderato
TTITLE1=II. Andante sostenuto
TTITLE2=III. Scherzo. Allegro vivace - Trio
TTITLE3=IV. Allegro ma non troppo
TTITLE4=Three Impromptus, D946 - No.1 in E flat minor -  Allegro
TTITLE5=No.2 in E flat - Allegretto
TTITLE6=No.3 in C - Allegro
EXTD=
EXTT0=
EXTT1=
EXTT2=
EXTT3=
EXTT4=
EXTT5=
EXTT6=
PLAYORDER=
